<?xml version="1.0" standalone="no"?>
<!DOCTYPE svg PUBLIC "-//W3C//DTD SVG 20010904//EN"
 "http://www.w3.org/TR/2001/REC-SVG-20010904/DTD/svg10.dtd">
<svg version="1.0" xmlns="http://www.w3.org/2000/svg"
 width="537.000000pt" height="551.000000pt" viewBox="0 0 537.000000 551.000000"
 preserveAspectRatio="xMidYMid meet">

<g transform="translate(0.000000,551.000000) scale(0.100000,-0.100000)"
fill="#000000" stroke="none">
<path d="M3351 5135 l-341 -265 -55 -1 c-54 -2 -55 -3 -65 -38 -41 -145 -167
-661 -162 -665 3 -3 587 -6 1299 -6 1028 0 1293 3 1293 13 0 35 -171 681 -182
689 -7 4 -182 8 -388 7 l-374 -1 -53 41 -53 41 0 155 0 155 -125 0 -124 0 -3
-55 -3 -55 -125 97 c-69 54 -141 111 -161 126 l-36 27 -342 -265z m512 78 c89
-70 237 -187 330 -260 l167 -134 0 -215 0 -214 -665 0 -665 0 0 219 0 218 172
134 c94 74 242 189 327 256 86 67 160 122 164 122 5 1 81 -56 170 -126z"/>
<path d="M3373 5062 l-318 -247 0 -200 0 -200 638 -3 637 -2 0 200 0 200 -67
54 c-106 85 -547 431 -560 439 -7 4 -138 -91 -330 -241z m265 -374 l-3 -213
-167 -3 -168 -2 0 215 0 215 170 0 170 0 -2 -212z m442 -3 l0 -215 -167 2
-168 3 -3 213 -2 212 170 0 170 0 0 -215z"/>
<path d="M3340 4605 l0 -95 130 0 130 0 0 95 0 95 -130 0 -130 0 0 -95z"/>
<path d="M3780 4605 l0 -95 130 0 130 0 0 95 0 95 -130 0 -130 0 0 -95z"/>
<path d="M1124 5087 c-77 -73 -235 -220 -350 -327 -538 -502 -689 -644 -692
-652 -2 -4 22 -8 53 -8 l57 0 202 188 c111 103 351 327 535 497 183 171 338
310 346 310 11 0 598 -547 920 -857 147 -141 145 -140 211 -136 l57 3 -314
296 c-173 163 -439 413 -591 557 -152 144 -281 262 -285 262 -4 -1 -71 -60
-149 -133z"/>
<path d="M985 4788 c-160 -149 -397 -370 -527 -491 l-238 -221 0 -473 0 -473
300 0 c193 0 300 4 300 10 0 6 13 10 29 10 26 0 30 4 33 33 3 35 -5 33 126 36
l62 1 0 350 0 350 205 0 205 0 0 -350 0 -349 93 -3 92 -3 3 -32 c3 -29 7 -33
33 -33 16 0 29 -4 29 -10 0 -6 107 -10 300 -10 l300 0 -1 468 0 467 -250 235
c-137 129 -309 291 -382 359 -73 68 -197 186 -277 262 l-146 137 -289 -270z
m496 -153 c196 -184 201 -190 171 -193 l-31 -3 -3 -152 -3 -152 -342 -3 -343
-2 0 155 0 155 -35 0 c-19 0 -35 3 -34 8 1 11 403 382 411 379 4 -1 98 -87
209 -192z m-891 -790 l0 -75 -120 0 -120 0 0 75 0 75 120 0 120 0 0 -75z m290
0 l0 -75 -120 0 -120 0 0 75 0 75 120 0 120 0 0 -75z m1030 0 l0 -76 -122 3
-123 3 -3 59 c-2 32 -1 65 2 72 4 11 33 14 126 14 l120 0 0 -75z m290 0 l0
-75 -120 0 -120 0 0 75 0 75 120 0 120 0 0 -75z m-1610 -180 l0 -75 -120 0
-120 0 0 75 0 75 120 0 120 0 0 -75z m290 0 l0 -75 -120 0 -120 0 0 75 0 75
120 0 120 0 0 -75z m1030 0 l0 -75 -119 0 c-66 0 -121 3 -123 8 -2 4 -2 37 0
75 l4 67 119 0 119 0 0 -75z m290 0 l0 -75 -120 0 -120 0 0 75 0 75 120 0 120
0 0 -75z m-1322 -172 l3 -73 -121 0 -120 0 0 68 c0 38 3 72 7 76 4 3 57 5 117
4 l111 -3 3 -72z m1030 -1 l3 -73 -123 3 -123 3 -3 67 c-3 80 -9 77 138 74
l105 -1 3 -73z m290 1 l3 -73 -121 0 -120 0 0 68 c0 38 3 72 7 76 4 3 57 5
117 4 l111 -3 3 -72z m-1608 -3 l0 -70 -120 0 -120 0 0 70 0 70 120 0 120 0 0
-70z"/>
<path d="M1050 4440 l0 -60 100 0 100 0 0 60 0 60 -100 0 -100 0 0 -60z"/>
<path d="M1300 4440 l0 -60 100 0 100 0 0 60 0 60 -100 0 -100 0 0 -60z"/>
<path d="M1063 4343 c-9 -3 -13 -26 -13 -64 l0 -59 100 0 100 0 0 65 0 65 -87
-1 c-49 0 -94 -3 -100 -6z"/>
<path d="M1300 4284 l0 -64 100 0 100 0 0 65 0 66 -100 -2 -100 -1 0 -64z"/>
<path d="M2830 3635 l0 -495 180 0 180 0 0 374 0 375 22 15 c18 13 52 16 163
16 111 0 145 -3 163 -16 l22 -15 0 -375 0 -374 825 0 825 0 0 495 0 495 -1190
0 -1190 0 0 -495z m1450 -35 l0 -320 -165 0 -165 0 0 320 0 320 165 0 165 0 0
-320z m540 0 l0 -320 -165 0 -165 0 0 320 0 320 165 0 165 0 0 -320z"/>
<path d="M3980 3410 l0 -90 130 0 130 0 0 90 0 90 -130 0 -130 0 0 -90z"/>
<path d="M4527 3504 c-4 -4 -7 -47 -7 -96 l0 -88 133 0 132 0 -2 92 -1 93
-124 3 c-68 1 -127 -1 -131 -4z"/>
<path d="M3495 3460 c-7 -12 2 -30 16 -30 12 0 12 27 0 35 -5 3 -12 1 -16 -5z"/>
<path d="M908 3158 c-3 -29 -7 -33 -35 -36 -30 -3 -33 -6 -33 -38 l0 -34 430
0 430 0 0 34 c0 30 -3 35 -27 38 -23 2 -29 8 -31 36 l-3 32 -364 0 -364 0 -3
-32z"/>
<path d="M220 3080 l0 -30 300 0 300 0 0 30 0 30 -300 0 -300 0 0 -30z"/>
<path d="M1730 3080 l0 -30 300 0 300 0 0 30 0 30 -300 0 -300 0 0 -30z"/>
<path d="M2837 3103 c-4 -3 -7 -17 -7 -30 l0 -23 1190 0 1190 0 0 30 0 30
-1183 0 c-651 0 -1187 -3 -1190 -7z"/>
<path d="M3590 2715 l0 -65 -177 -2 -177 -3 -122 -265 c-68 -146 -123 -268
-123 -272 -1 -5 218 -8 486 -8 l487 0 54 53 53 52 47 -52 48 -53 497 0 c306 0
497 4 497 9 0 6 -54 125 -120 266 -66 141 -120 261 -120 266 0 5 -192 9 -460
9 l-460 0 0 65 0 65 -205 0 -205 0 0 -65z"/>
<path d="M1740 2345 c0 -14 5 -25 10 -25 6 0 10 -25 10 -55 l0 -55 -707 -2
-708 -3 -87 -325 c-48 -179 -87 -326 -88 -327 0 -2 164 -3 365 -3 l366 0 267
234 c262 231 267 235 287 217 11 -10 131 -116 267 -235 l247 -216 366 0 365 0
-6 24 c-3 13 -43 160 -88 327 l-83 304 -136 3 -137 3 0 54 c0 42 3 55 15 55 9
0 15 9 15 25 l0 25 -270 0 -270 0 0 -25z"/>
<path d="M3150 1175 l0 -895 110 0 110 0 0 430 0 430 170 0 170 0 0 -430 0
-430 645 0 645 0 0 895 0 895 -925 0 -925 0 0 -895z m560 520 l0 -225 -170 0
-170 0 0 225 0 225 170 0 170 0 0 -225z m530 0 l0 -225 -175 0 -175 0 0 225 0
225 175 0 175 0 0 -225z m520 0 l0 -225 -170 0 -170 0 0 225 0 225 170 0 170
0 0 -225z m37 -485 l21 -70 -29 0 -29 0 0 -290 0 -290 -435 0 -435 0 0 290 0
290 -25 0 c-30 0 -30 3 -8 80 l16 60 452 0 452 0 20 -70z"/>
<path d="M3400 1690 l0 -201 143 3 142 3 3 198 2 197 -145 0 -145 0 0 -200z
m260 0 l0 -180 -120 0 -120 0 0 180 0 180 120 0 120 0 0 -180z"/>
<path d="M3920 1690 l0 -200 145 0 145 0 0 200 0 200 -145 0 -145 0 0 -200z
m268 3 l-3 -178 -120 0 -120 0 -3 178 -2 177 125 0 125 0 -2 -177z"/>
<path d="M4442 1693 l3 -198 143 -3 142 -3 0 201 0 200 -145 0 -145 0 2 -197z
m268 -3 l0 -180 -120 0 -120 0 0 180 0 180 120 0 120 0 0 -180z"/>
<path d="M3920 845 l0 -265 405 0 405 0 0 265 0 265 -405 0 -405 0 0 -265z
m790 5 l0 -240 -385 0 -385 0 0 240 0 240 385 0 385 0 0 -240z"/>
<path d="M1265 1839 c-88 -78 -247 -218 -352 -311 -106 -94 -193 -172 -193
-174 0 -2 35 -4 79 -4 l78 0 253 223 c139 122 265 232 279 244 l27 21 278
-244 279 -244 79 0 c44 0 77 4 74 9 -11 17 -697 616 -709 618 -7 2 -84 -61
-172 -138z"/>
<path d="M230 895 l0 -615 315 0 315 0 0 525 0 525 -102 0 -103 0 45 43 c25
23 70 64 100 90 l55 47 -313 0 -312 0 0 -615z m458 23 l-3 -333 -100 -3 c-55
-2 -119 0 -142 3 l-43 6 0 330 0 329 145 0 145 0 -2 -332z m2 -373 c0 -13 -23
-15 -145 -15 -122 0 -145 2 -145 15 0 13 23 15 145 15 122 0 145 -2 145 -15z"/>
<path d="M2070 1462 c30 -26 75 -66 100 -89 l45 -43 -102 0 -103 0 0 -525 0
-525 315 0 315 0 0 615 0 615 -312 0 -313 0 55 -48z m400 -541 c0 -178 -3
-328 -6 -333 -3 -5 -66 -8 -140 -7 l-134 1 0 334 0 335 141 -3 140 -3 -1 -324z
m5 -376 c0 -6 -56 -11 -142 -13 -124 -2 -143 0 -143 13 0 13 19 15 143 13 86
-2 142 -7 142 -13z"/>
<path d="M1250 1230 c-19 -19 -20 -33 -20 -460 l0 -440 -80 0 -80 0 0 -30 c0
-28 -3 -30 -36 -30 -35 0 -35 -1 -32 -37 l3 -38 430 0 430 0 0 35 c0 31 -3 35
-30 40 -24 4 -31 11 -33 33 -3 27 -4 27 -83 27 l-79 0 0 440 c0 427 -1 441
-20 460 -18 18 -33 20 -185 20 -152 0 -167 -2 -185 -20z m359 -444 c9 -11 8
-17 -4 -30 -19 -18 -45 -11 -45 13 0 32 28 42 49 17z"/>
<path d="M3644 649 c-10 -17 13 -36 27 -22 12 12 4 33 -11 33 -5 0 -12 -5 -16
-11z"/>
<path d="M230 220 l0 -30 315 0 315 0 0 30 0 30 -315 0 -315 0 0 -30z"/>
<path d="M2012 223 l3 -28 310 0 310 0 3 28 3 27 -316 0 -316 0 3 -27z"/>
<path d="M3152 223 l3 -28 923 -3 922 -2 0 30 0 30 -926 0 -925 0 3 -27z"/>
</g>
</svg>
