<?xml version="1.0" standalone="no"?>
<!DOCTYPE svg PUBLIC "-//W3C//DTD SVG 20010904//EN"
 "http://www.w3.org/TR/2001/REC-SVG-20010904/DTD/svg10.dtd">
<svg version="1.0" xmlns="http://www.w3.org/2000/svg"
 width="960.000000pt" height="408.000000pt" viewBox="0 0 960.000000 408.000000"
 preserveAspectRatio="xMidYMid meet">

<g transform="translate(0.000000,408.000000) scale(0.100000,-0.100000)"
fill="#FFD90F" stroke="none">
<path d="M6021 4069 c-115 -20 -243 -101 -348 -222 -212 -242 -303 -660 -195
-891 57 -122 244 -286 368 -322 163 -47 586 102 762 270 75 71 89 126 37 146
-38 14 -103 -7 -242 -81 -157 -83 -225 -108 -318 -116 -116 -9 -254 37 -321
109 -84 89 -40 157 136 208 168 50 336 167 444 311 66 87 75 141 48 270 -54
256 -167 353 -371 318z m131 -278 c27 -24 32 -36 36 -87 3 -53 0 -64 -29 -109
-35 -52 -250 -275 -265 -274 -5 0 -29 25 -53 56 l-45 56 11 64 c22 126 106
248 205 297 67 34 100 33 140 -3z"/>
<path d="M5122 4064 c-26 -12 -35 -62 -43 -249 -12 -281 -48 -426 -116 -470
-31 -20 -101 -22 -141 -3 -53 26 -56 48 -57 354 0 263 -1 283 -19 303 -27 30
-49 26 -84 -13 -55 -63 -93 -207 -108 -406 -8 -120 -29 -165 -111 -246 -35
-34 -63 -70 -63 -81 0 -10 18 -57 41 -103 47 -98 66 -171 74 -290 9 -121 23
-181 47 -207 23 -24 57 -29 87 -13 31 16 59 100 70 210 19 182 86 280 192 280
45 0 51 -3 68 -32 21 -33 48 -132 74 -267 21 -110 61 -193 90 -189 80 11 140
423 141 958 0 317 -8 390 -47 435 -22 25 -70 39 -95 29z"/>
<path d="M3842 3948 c-30 -15 -62 -68 -92 -157 -40 -119 -34 -117 -320 -113
-194 2 -245 0 -274 -12 -42 -17 -58 -51 -54 -110 5 -73 53 -91 393 -150 l190
-32 -1 -35 c-1 -19 -5 -181 -9 -361 -9 -353 -7 -370 39 -346 46 24 98 72 123
115 42 72 53 142 63 384 11 295 18 309 155 309 179 0 355 91 355 184 0 73 -78
91 -273 61 -157 -24 -177 -11 -177 115 0 73 -23 133 -56 149 -29 13 -32 13
-62 -1z"/>
<path d="M1585 3353 c-395 -60 -888 -242 -1175 -431 -192 -127 -346 -332 -390
-522 -16 -68 -17 -218 -1 -285 35 -145 128 -309 238 -417 154 -150 443 -365
968 -718 338 -227 560 -388 609 -439 17 -17 26 -36 23 -45 -31 -81 -413 -126
-817 -96 -184 14 -325 35 -515 77 -107 23 -189 36 -246 37 -83 1 -89 0 -125
-30 -22 -16 -47 -47 -57 -66 -16 -32 -16 -40 -4 -70 40 -96 235 -189 617 -294
115 -32 154 -38 267 -42 289 -10 736 54 882 125 157 76 299 333 250 450 -26
60 -286 263 -731 571 -496 344 -797 581 -895 705 -216 275 -197 604 45 787
142 107 397 211 647 263 148 31 264 45 465 53 357 15 505 -42 581 -224 36 -89
45 -102 68 -102 18 0 102 82 120 117 6 12 11 39 11 61 0 49 -42 197 -74 260
-50 98 -153 166 -361 238 -103 35 -118 38 -240 40 -71 1 -143 0 -160 -3z"/>
<path d="M9238 2060 c-241 -41 -470 -220 -578 -453 -44 -94 -63 -180 -62 -286
0 -87 3 -98 37 -169 32 -63 61 -98 177 -216 167 -168 200 -212 206 -276 3 -38
0 -51 -21 -76 -36 -43 -120 -85 -283 -142 -160 -56 -217 -83 -256 -120 -37
-34 -36 -72 1 -114 29 -33 31 -33 118 -33 106 0 173 21 349 105 215 104 362
243 410 389 16 50 16 54 -2 94 -25 55 -111 170 -215 287 -170 191 -217 264
-226 356 -8 74 27 141 120 237 122 124 240 176 326 141 48 -19 72 -49 95 -121
20 -59 35 -76 68 -71 50 7 90 107 92 228 1 128 -49 214 -141 239 -43 12 -145
12 -215 1z"/>
<path d="M6305 2013 c-100 -14 -224 -76 -359 -178 -95 -71 -162 -145 -194
-214 -21 -46 -24 -63 -19 -125 6 -99 32 -158 151 -348 178 -286 170 -334 -54
-349 -162 -11 -233 -37 -265 -99 -35 -67 25 -158 123 -186 142 -42 467 36 590
141 70 59 94 155 68 268 -20 86 -51 147 -142 279 -101 145 -134 217 -134 291
0 66 14 99 62 143 46 44 107 77 218 119 159 61 210 99 210 158 0 35 -36 70
-87 85 -47 14 -129 21 -168 15z"/>
<path d="M5104 1946 c-96 -31 -186 -120 -244 -242 -17 -35 -44 -123 -61 -195
-30 -137 -60 -217 -87 -243 -10 -8 -35 -16 -56 -18 -102 -8 -110 -148 -16
-268 41 -52 79 -133 86 -182 9 -66 24 -98 50 -104 71 -18 153 70 169 181 10
68 31 110 63 125 16 8 91 16 187 21 176 8 234 21 307 69 93 62 138 152 138
279 0 222 -133 474 -295 556 -67 33 -175 43 -241 21z m181 -270 c91 -97 161
-241 149 -305 -13 -62 -80 -100 -180 -102 -27 0 -74 -4 -104 -8 -53 -8 -57 -7
-105 27 -27 20 -52 37 -54 38 -4 3 105 276 130 327 49 95 91 101 164 23z"/>
<path d="M2571 1854 c-30 -38 -39 -82 -56 -265 -9 -90 -32 -267 -51 -394 -69
-453 -79 -602 -47 -670 24 -50 54 -55 122 -19 42 21 62 40 79 72 46 82 77 313
103 747 16 288 -2 478 -53 532 -29 31 -71 30 -97 -3z"/>
<path d="M3434 1830 c-67 -15 -150 -95 -198 -187 -9 -17 -22 -79 -30 -136 -18
-124 -34 -199 -92 -415 -24 -89 -49 -207 -55 -262 -15 -114 -9 -138 43 -171
27 -17 45 -20 102 -16 124 8 141 46 176 381 22 216 32 272 56 317 17 34 27 36
54 9 27 -27 50 -76 110 -235 63 -168 76 -185 139 -185 95 0 203 92 266 225 35
73 38 76 55 60 44 -40 48 -132 15 -375 -22 -159 -17 -260 16 -326 33 -68 62
-71 125 -12 67 63 75 105 81 419 6 307 -10 637 -35 712 -24 71 -50 88 -146 90
-61 2 -80 -1 -87 -13 -5 -8 -41 -98 -80 -200 -75 -194 -114 -280 -127 -280 -4
0 -14 28 -21 62 -17 84 -80 248 -136 357 -46 89 -127 181 -159 181 -8 0 -20 2
-28 4 -7 2 -27 1 -44 -4z"/>
<path d="M8038 1779 c-26 -15 -23 -59 17 -251 71 -347 69 -588 -4 -588 -23 0
-61 42 -102 110 -70 119 -125 155 -237 154 -67 0 -75 -2 -102 -29 -22 -22 -35
-51 -49 -110 -40 -162 -75 -528 -55 -580 11 -27 51 -37 87 -21 48 20 82 62
122 151 72 157 97 160 251 30 96 -82 121 -76 247 53 87 90 111 136 128 243 15
97 5 477 -15 574 -28 138 -76 229 -136 260 -33 17 -126 20 -152 4z"/>
<path d="M6854 1411 c-41 -18 -97 -99 -169 -246 -134 -273 -158 -381 -115
-516 37 -115 83 -153 217 -185 91 -21 243 -14 337 16 241 77 337 450 178 696
-53 81 -121 138 -229 191 -95 46 -176 62 -219 44z m234 -341 c73 -44 78 -135
17 -264 -40 -85 -78 -118 -155 -135 -130 -30 -150 -11 -132 127 21 156 54 235
114 272 43 26 113 26 156 0z"/>
</g>
</svg>
