<?xml version="1.0" standalone="no"?>
<!DOCTYPE svg PUBLIC "-//W3C//DTD SVG 20010904//EN"
 "http://www.w3.org/TR/2001/REC-SVG-20010904/DTD/svg10.dtd">
<svg version="1.0" xmlns="http://www.w3.org/2000/svg"
 width="610.000000pt" height="345.000000pt" viewBox="0 0 610.000000 345.000000"
 preserveAspectRatio="xMidYMid meet">

<g transform="translate(0.000000,345.000000) scale(0.100000,-0.100000)"
fill="#000000" stroke="none">
<path d="M3694 3369 c-37 -10 -130 -91 -139 -119 -4 -14 -15 -20 -34 -20 -50
0 -149 -60 -212 -128 -65 -71 -142 -215 -159 -298 -9 -39 -17 -54 -36 -63 -28
-12 -63 -81 -64 -124 0 -16 -12 -44 -26 -63 -57 -74 -68 -164 -33 -263 11 -33
19 -66 18 -73 -5 -43 4 -80 27 -108 l27 -31 -31 -32 c-39 -41 -79 -121 -88
-176 -4 -27 -17 -53 -35 -71 -42 -42 -42 -89 -1 -133 30 -31 133 -67 193 -67
36 0 39 -2 39 -29 0 -34 43 -76 89 -86 26 -6 31 -12 36 -48 3 -23 1 -58 -3
-77 -8 -34 -10 -35 -87 -53 -94 -21 -100 -27 -151 -148 l-37 -87 -76 5 c-84 6
-220 -21 -290 -57 -40 -20 -76 -57 -86 -91 -4 -13 -16 -19 -33 -19 -25 0 -32
10 -70 86 -38 75 -42 90 -33 118 5 17 15 63 20 103 6 40 22 93 36 119 14 26
25 61 25 78 0 18 10 59 21 91 30 83 37 235 15 301 -35 106 -116 167 -221 168
-49 0 -74 -7 -137 -37 -94 -46 -194 -136 -204 -185 -5 -25 -16 -38 -43 -52
-20 -10 -47 -30 -60 -44 -33 -35 -40 -119 -16 -183 21 -55 21 -146 -1 -211
-33 -100 -8 -214 67 -296 44 -48 47 -56 58 -136 41 -284 123 -437 273 -506 56
-26 74 -29 163 -28 101 0 227 26 300 62 27 13 26 10 -16 -34 -25 -27 -60 -68
-78 -91 -33 -43 -103 -171 -115 -210 l-7 -23 1037 0 1037 0 -7 98 c-4 53 -14
143 -23 200 l-16 103 24 17 c12 9 26 19 31 22 11 8 -9 125 -33 194 -69 194
-226 336 -373 336 -60 0 -62 1 -74 32 -10 28 -9 35 10 55 21 23 22 27 10 107
-7 45 -19 104 -28 129 -15 45 -18 47 -54 47 -31 0 -39 4 -44 23 -3 12 -6 118
-6 235 0 185 2 212 15 212 74 0 138 118 113 208 -12 43 -37 75 -54 68 -7 -3
-3 19 12 57 13 33 24 67 24 74 0 13 60 86 66 80 4 -4 -10 -125 -21 -191 -3
-16 -2 -26 2 -23 7 8 32 184 32 227 0 25 0 24 -31 -10 -17 -19 -28 -28 -25
-19 18 54 88 306 102 373 21 96 16 180 -15 256 -27 64 -88 143 -145 189 -31
24 -41 41 -43 64 -1 18 -13 54 -26 81 l-24 48 49 -4 c82 -8 150 -76 168 -170
7 -36 9 -38 10 -12 1 16 -11 54 -25 83 -33 66 -85 102 -157 109 -33 3 -63 13
-83 28 -66 50 -143 65 -220 43z m154 -15 c42 -17 85 -55 112 -99 19 -31 44
-119 32 -113 -43 21 -124 59 -151 70 l-34 14 36 23 c21 13 50 27 65 31 19 6
21 9 8 9 -11 1 -40 -11 -65 -26 -44 -27 -53 -28 -168 -28 -68 0 -123 2 -123 4
0 2 12 19 26 38 26 35 85 77 120 86 41 10 106 6 142 -9z m-1578 -1674 c0 -52
-21 -93 -55 -108 -38 -18 -52 -15 -59 12 -13 53 42 136 92 136 19 0 22 -5 22
-40z"/>
<path d="M4172 3010 c0 -19 2 -27 5 -17 2 9 2 25 0 35 -3 9 -5 1 -5 -18z"/>
</g>
</svg>
